<?xml version="1.0" encoding="UTF-8"?>
<svg version="1.1" xmlns="http://www.w3.org/2000/svg" width="200" height="200">
<path d="M0 0 C1 1 1 1 1.26098633 3.84448242 C1.17310041 9.27969614 -0.60672646 14.32828227 -2.17578125 19.48828125 C-2.5016069 20.58665817 -2.82743256 21.6850351 -3.16313171 22.81669617 C-4.20402692 26.3180219 -5.25804516 29.81523684 -6.3125 33.3125 C-7.01063544 35.65273549 -7.70790999 37.99322798 -8.40429688 40.33398438 C-11.56199687 50.93375029 -11.56199687 50.93375029 -13.16519165 56.18618774 C-13.72336225 58.06756242 -14.25112475 59.95821737 -14.74862671 61.85653687 C-14.98779816 62.74716827 -15.2269696 63.63779968 -15.47338867 64.55541992 C-15.67316818 65.34148117 -15.87294769 66.12754242 -16.07878113 66.93742371 C-17.25018997 69.56016645 -18.56464496 70.52077882 -21 72 C-24.21020508 72.90380859 -24.21020508 72.90380859 -28.01953125 73.6484375 C-28.70682816 73.78616577 -29.39412506 73.92389404 -30.10224915 74.0657959 C-32.33722603 74.51175263 -34.57472064 74.94334864 -36.8125 75.375 C-39.12752149 75.8331245 -41.44181612 76.2948055 -43.75610352 76.75662231 C-45.30159319 77.06472329 -46.84732989 77.37158778 -48.39331055 77.67721558 C-55.90249307 79.1648402 -63.37660762 80.80103503 -70.84301758 82.48974609 C-75.88529981 83.61133036 -80.83955926 84.64994822 -86 85 C-86.99 84.34 -87.98 83.68 -89 83 C-88.44116254 77.91050004 -87.25268665 73.50096051 -85.3515625 68.73828125 C-84.80452773 67.32572344 -84.25935613 65.91244301 -83.71582031 64.49853516 C-83.43291138 63.76411194 -83.15000244 63.02968872 -82.85852051 62.27301025 C-81.40663314 58.42900787 -80.06238787 54.54816387 -78.7109375 50.66796875 C-78.15673305 49.09292891 -77.60204428 47.51805939 -77.046875 45.94335938 C-76.20007084 43.54052779 -75.35743408 41.13659624 -74.52636719 38.72827148 C-73.70399997 36.34961936 -72.86533585 33.97726654 -72.0234375 31.60546875 C-71.77854584 30.88368942 -71.53365417 30.1619101 -71.28134155 29.41825867 C-69.84326056 25.42036219 -68.8110054 22.98191089 -65 21 C-62.03336016 19.76083978 -59.02162936 18.68918745 -55.984375 17.63671875 C-55.09574768 17.32225296 -54.20712036 17.00778717 -53.29156494 16.68379211 C-50.44665709 15.67841448 -47.59851737 14.68259944 -44.75 13.6875 C-41.95425218 12.70448368 -39.15922549 11.71945511 -36.36462402 10.73318481 C-34.53212334 10.08706818 -32.69887244 9.44307525 -30.86486816 8.80123901 C-26.65669604 7.32274478 -22.46995835 5.81339963 -18.31835938 4.18212891 C-17.59763245 3.90077591 -16.87690552 3.61942291 -16.13433838 3.32954407 C-14.2251078 2.57743281 -12.32175602 1.81044473 -10.41894531 1.04223633 C-6.75224646 -0.07552555 -3.81168751 -0.26872695 0 0 Z " fill="#FD0137" transform="translate(108,19)"/>
<path d="M0 0 C2.32324684 1.44874991 4.24086711 2.82054431 6.3125 4.5625 C6.88371582 5.02213135 7.45493164 5.4817627 8.04345703 5.95532227 C9.18710005 6.87625925 10.32622793 7.80283542 11.46044922 8.73535156 C13.40751049 10.33474537 15.38628603 11.89030317 17.375 13.4375 C18.07496094 13.98277344 18.77492187 14.52804688 19.49609375 15.08984375 C22.78281326 17.59718515 26.10609602 20.05246313 29.4375 22.5 C30.08275635 22.9751001 30.7280127 23.4502002 31.39282227 23.93969727 C35.88356671 27.2291178 40.45450656 30.36620018 45.14453125 33.3671875 C47.40078318 35.3526892 48.09293599 37.16842453 49 40 C45.66183271 44.10450854 41.99767424 45.19790692 37.04296875 46.4375 C36.26294998 46.64431396 35.48293121 46.85112793 34.67927551 47.06420898 C32.18519021 47.7223706 29.6866827 48.36149975 27.1875 49 C25.54979915 49.42842397 23.91242539 49.85810039 22.27539062 50.2890625 C19.05688723 51.13434964 15.83672083 51.97273167 12.61474609 52.8046875 C8.31798115 53.9151794 4.02657499 55.04476026 -0.26171875 56.1875 C-1.39955811 56.49042969 -2.53739746 56.79335937 -3.7097168 57.10546875 C-6.06561207 57.7459674 -8.4072695 58.43976597 -10.73754883 59.16796875 C-14.38955623 60.09934952 -15.74992388 59.77276879 -19 58 C-19.62144772 51.41193055 -20.19805485 44.82114076 -20.734375 38.22558594 C-20.90679076 36.13187544 -21.08607604 34.03871505 -21.2734375 31.94628906 C-21.52216196 29.11139552 -21.73447871 26.27598671 -21.9375 23.4375 C-22.0192749 22.57680908 -22.1010498 21.71611816 -22.18530273 20.8293457 C-22.45150216 16.59496657 -22.41810395 13.92550631 -19.69140625 10.54296875 C-16.94873679 7.95156408 -14.19543883 5.99714927 -11 4 C-10.175 3.2575 -9.35 2.515 -8.5 1.75 C-5.29188363 -0.49568146 -3.86796573 -0.47124794 0 0 Z " fill="#FC0138" transform="translate(104,122)"/>
<path d="M0 0 C1.76171875 1.390625 1.76171875 1.390625 3.6875 3.25 C6.76847688 6.10869164 9.92844971 8.73876417 13.296875 11.24609375 C14.05911377 11.81360352 14.82135254 12.38111328 15.60668945 12.96582031 C17.14285037 14.10052302 18.68555678 15.22642519 20.23510742 16.34277344 C26.88617463 21.27281987 26.88617463 21.27281987 28 26 C24.66556793 29.97146759 20.82833567 31.55183752 16.0859375 33.3125 C15.31625641 33.60809814 14.54657532 33.90369629 13.75357056 34.20825195 C11.29776043 35.14893221 8.83666535 36.07476501 6.375 37 C4.74310826 37.62139534 3.11159358 38.24378186 1.48046875 38.8671875 C-0.88732624 39.77199918 -3.25570272 40.6749116 -5.6272583 41.56982422 C-10.45746794 43.39367877 -15.23883061 45.30145141 -19.97021484 47.37109375 C-22.42674094 48.13222091 -24.44257073 48.20949864 -27 48 C-30.39249565 44.88954081 -31.38569531 40.41190969 -32.6875 36.125 C-32.91244141 35.43019531 -33.13738281 34.73539063 -33.36914062 34.01953125 C-34.63024077 29.948746 -35.58634993 26.29578475 -35 22 C-33.4609375 20.0234375 -33.4609375 20.0234375 -31.375 18.375 C-30.36566406 17.55128906 -30.36566406 17.55128906 -29.3359375 16.7109375 C-27.63596033 15.46580372 -25.89833961 14.27157974 -24.140625 13.109375 C-20.1641864 10.43863266 -16.43575328 7.50365985 -12.6796875 4.53515625 C-4.47392813 -1.87075496 -4.47392813 -1.87075496 0 0 Z " fill="#FC0138" transform="translate(153,86)"/>
<path d="M0 0 C1.29151474 -0.00630432 2.58302948 -0.01260864 3.91368103 -0.019104 C5.32990657 -0.01552395 6.74613087 -0.01142193 8.16235352 -0.00683594 C9.60962489 -0.00818276 11.05689583 -0.01012344 12.50416565 -0.01263428 C15.53976746 -0.01558567 18.57525168 -0.01128813 21.61083984 -0.00195312 C25.50270437 0.00943135 29.39429276 0.00288857 33.28614712 -0.00909805 C36.27584412 -0.01632499 39.26547566 -0.01402473 42.25517464 -0.00884247 C43.69010513 -0.00750775 45.12504156 -0.00914749 46.55996513 -0.01380157 C48.56601727 -0.01887905 50.57209022 -0.00976829 52.578125 0 C53.72014877 0.00159119 54.86217255 0.00318237 56.0388031 0.00482178 C58.85375977 0.25878906 58.85375977 0.25878906 61.85375977 2.25878906 C64.87611936 6.74684143 66.40114914 10.78489537 65.85375977 16.25878906 C59.97976281 19.78240247 53.58477303 20.83054272 46.93969727 22.21191406 C45.69249908 22.47639343 44.4453009 22.7408728 43.16030884 23.0133667 C40.53024596 23.56870395 37.89973495 24.12062006 35.26782227 24.66699219 C31.89832215 25.36702882 28.53231935 26.08250385 25.16704369 26.80253983 C21.94721066 27.48916612 18.72459201 28.16242965 15.50219727 28.83691406 C13.69119034 29.22426727 13.69119034 29.22426727 11.84359741 29.6194458 C10.72208282 29.85008728 9.60056824 30.08072876 8.44506836 30.31835938 C7.45944916 30.52471008 6.47382996 30.73106079 5.45834351 30.94366455 C2.86759157 31.25711557 1.26756163 31.22221443 -1.14624023 30.25878906 C-2.24291992 28.22094727 -2.24291992 28.22094727 -3.06811523 25.55957031 C-3.37104492 24.59728516 -3.67397461 23.635 -3.98608398 22.64355469 C-4.28643555 21.62970703 -4.58678711 20.61585937 -4.89624023 19.57128906 C-5.21206055 18.57677734 -5.52788086 17.58226563 -5.85327148 16.55761719 C-8.7900969 7.00339946 -8.7900969 7.00339946 -8.14624023 2.25878906 C-5.39877344 -0.48867773 -3.84640313 0.00536295 0 0 Z " fill="#FC0137" transform="translate(111.146240234375,53.7412109375)"/>
<path d="M0 0 C3.99679577 0.61961499 6.51164046 2.87128822 9.546875 5.37109375 C10.13597656 5.83966797 10.72507813 6.30824219 11.33203125 6.79101562 C15.41986607 10.05658482 15.41986607 10.05658482 16.796875 11.43359375 C16.41830894 19.06800927 14.28611921 25.74437795 11.796875 32.93359375 C11.42820313 34.02929688 11.05953125 35.125 10.6796875 36.25390625 C7.95159774 44.27887101 7.95159774 44.27887101 6.796875 45.43359375 C1.08596597 45.87793744 -3.02219113 44.72026523 -8.203125 42.62109375 C-8.87601563 42.36005859 -9.54890625 42.09902344 -10.2421875 41.83007812 C-22.66179675 36.974922 -22.66179675 36.974922 -24.203125 35.43359375 C-23.88067907 30.01781817 -22.65450508 27.05805807 -19.265625 22.87109375 C-18.46125 21.85144531 -17.656875 20.83179687 -16.828125 19.78125 C-16.40144531 19.24387207 -15.97476563 18.70649414 -15.53515625 18.15283203 C-12.72203495 14.5219669 -10.11996497 10.73488606 -7.47875977 6.97827148 C-2.9515021 0.58088073 -2.9515021 0.58088073 0 0 Z " fill="#FB0237" transform="translate(67.203125,96.56640625)"/>
<path d="M0 0 C1.29151474 -0.00630432 2.58302948 -0.01260864 3.91368103 -0.019104 C5.32990657 -0.01552395 6.74613087 -0.01142193 8.16235352 -0.00683594 C9.60962489 -0.00818276 11.05689583 -0.01012344 12.50416565 -0.01263428 C15.53976746 -0.01558567 18.57525168 -0.01128813 21.61083984 -0.00195312 C25.50270437 0.00943135 29.39429276 0.00288857 33.28614712 -0.00909805 C36.27584412 -0.01632499 39.26547566 -0.01402473 42.25517464 -0.00884247 C43.69010513 -0.00750775 45.12504156 -0.00914749 46.55996513 -0.01380157 C48.56601727 -0.01887905 50.57209022 -0.00976829 52.578125 0 C53.72014877 0.00159119 54.86217255 0.00318237 56.0388031 0.00482178 C58.85375977 0.25878906 58.85375977 0.25878906 61.85375977 2.25878906 C64.87611936 6.74684143 66.40114914 10.78489537 65.85375977 16.25878906 C60.46288603 19.38442743 54.97734874 20.52984442 48.90844727 21.77441406 C47.86101349 21.99450134 46.81357971 22.21458862 45.73440552 22.44134521 C43.52814357 22.90253436 41.32099562 23.35950282 39.11303711 23.8125 C35.73083475 24.50836215 32.35285065 25.22251206 28.97485352 25.93847656 C26.82794718 26.38489216 24.6808188 26.83024156 22.53344727 27.27441406 C21.52297333 27.48890198 20.51249939 27.70338989 19.47140503 27.92437744 C18.53007721 28.11497742 17.58874939 28.30557739 16.61889648 28.50195312 C15.79316132 28.67277405 14.96742615 28.84359497 14.1166687 29.01959229 C11.7438304 29.27040895 10.11042719 28.9843762 7.85375977 28.25878906 C10.11998417 25.99256466 11.00466781 25.8387018 14.07250977 25.25878906 C15.34868164 25.01128906 15.34868164 25.01128906 16.65063477 24.75878906 C17.98868164 24.51128906 17.98868164 24.51128906 19.35375977 24.25878906 C20.64540039 24.01128906 20.64540039 24.01128906 21.96313477 23.75878906 C25.54246224 23.07292991 29.12340938 22.39585482 32.70532227 21.72363281 C33.61024414 21.54960938 34.51516602 21.37558594 35.44750977 21.19628906 C36.26928711 21.0403125 37.09106445 20.88433594 37.93774414 20.72363281 C39.85046235 20.43557247 39.85046235 20.43557247 40.85375977 19.25878906 C43.0401543 19.1861996 45.22876366 19.17505124 47.41625977 19.19628906 C49.21256836 19.20982422 49.21256836 19.20982422 51.04516602 19.22363281 C51.97200195 19.23523438 52.89883789 19.24683594 53.85375977 19.25878906 C53.85375977 18.59878906 53.85375977 17.93878906 53.85375977 17.25878906 C57.81375977 16.76378906 57.81375977 16.76378906 61.85375977 16.25878906 C62.53334579 13.86159474 62.53334579 13.86159474 62.85375977 11.25878906 C61.86375977 10.26878906 61.86375977 10.26878906 60.85375977 9.25878906 C60.13967643 7.27522423 59.46758235 5.27563469 58.85375977 3.25878906 C37.50812422 2.32867445 16.21629485 2.13563476 -5.14624023 2.25878906 C-5.18883013 6.73605213 -5.00493828 10.85796157 -4.14624023 15.25878906 C-3.48624023 15.25878906 -2.82624023 15.25878906 -2.14624023 15.25878906 C-2.14624023 17.56878906 -2.14624023 19.87878906 -2.14624023 22.25878906 C-1.48624023 22.25878906 -0.82624023 22.25878906 -0.14624023 22.25878906 C0.18375977 24.23878906 0.51375977 26.21878906 0.85375977 28.25878906 C2.83375977 28.58878906 4.81375977 28.91878906 6.85375977 29.25878906 C4.70202964 30.56519664 3.37813978 31.29712279 0.83325195 31.11108398 C-1.14624023 30.25878906 -1.14624023 30.25878906 -2.24291992 28.22094727 C-2.51523438 27.34269287 -2.78754883 26.46443848 -3.06811523 25.55957031 C-3.37104492 24.59728516 -3.67397461 23.635 -3.98608398 22.64355469 C-4.28643555 21.62970703 -4.58678711 20.61585937 -4.89624023 19.57128906 C-5.21206055 18.57677734 -5.52788086 17.58226563 -5.85327148 16.55761719 C-8.7900969 7.00339946 -8.7900969 7.00339946 -8.14624023 2.25878906 C-5.39877344 -0.48867773 -3.84640313 0.00536295 0 0 Z " fill="#D80D34" transform="translate(111.146240234375,53.7412109375)"/>
<path d="M0 0 C1.2375 0.1546875 1.2375 0.1546875 2.5 0.3125 C3.16 1.3025 3.82 2.2925 4.5 3.3125 C2.19 2.9825 -0.12 2.6525 -2.5 2.3125 C-3.70628008 4.64464148 -4.6654738 6.80892139 -5.5 9.3125 C-6.49 9.8075 -6.49 9.8075 -7.5 10.3125 C-8.15313458 11.55887472 -8.75012542 12.83512809 -9.3125 14.125 C-11.13155781 17.93217304 -13.10587605 19.76690704 -16.5 22.3125 C-19.60551838 26.28066238 -21.02155914 29.28887096 -21.5 34.3125 C-20.51 34.3125 -19.52 34.3125 -18.5 34.3125 C-18.5 34.9725 -18.5 35.6325 -18.5 36.3125 C-17.88253906 36.42207031 -17.26507813 36.53164062 -16.62890625 36.64453125 C-10.71364699 37.75195422 -5.16338777 39.29525521 0.5 41.3125 C1.675625 41.704375 2.85125 42.09625 4.0625 42.5 C4.866875 42.768125 5.67125 43.03625 6.5 43.3125 C6.27699219 42.52488281 6.05398437 41.73726562 5.82421875 40.92578125 C5.38013613 35.97666775 6.74986201 32.15969476 8.3125 27.5 C8.58642578 26.62923828 8.86035156 25.75847656 9.14257812 24.86132812 C10.67735329 20.13922611 10.67735329 20.13922611 11.5 18.3125 C12.16 17.9825 12.82 17.6525 13.5 17.3125 C14.16 17.6425 14.82 17.9725 15.5 18.3125 C13.85014395 24.7643761 11.96944042 31.11779325 9.875 37.4375 C9.65690674 38.10080322 9.43881348 38.76410645 9.21411133 39.44750977 C7.62383839 44.18866161 7.62383839 44.18866161 6.5 45.3125 C0.78909097 45.75684369 -3.31906613 44.59917148 -8.5 42.5 C-9.17289063 42.23896484 -9.84578125 41.97792969 -10.5390625 41.70898438 C-22.95867175 36.85382825 -22.95867175 36.85382825 -24.5 35.3125 C-24.17755407 29.89672442 -22.95138008 26.93696432 -19.5625 22.75 C-18.758125 21.73035156 -17.95375 20.71070312 -17.125 19.66015625 C-16.69832031 19.12277832 -16.27164063 18.58540039 -15.83203125 18.03173828 C-13.01890995 14.40087315 -10.41683997 10.61379231 -7.77563477 6.85717773 C-3.20665631 0.40083204 -3.20665631 0.40083204 0 0 Z " fill="#DA1A3E" transform="translate(67.5,96.6875)"/>
<path d="M0 0 C2.32289918 1.44853311 4.24151872 2.82022607 6.3125 4.5625 C7.44920669 5.48048369 8.58592551 6.39845235 9.72265625 7.31640625 C10.2758252 7.77160645 10.82899414 8.22680664 11.39892578 8.69580078 C13.63952047 10.52093906 15.94583749 12.25620981 18.25 14 C21.87647059 16.75294118 21.87647059 16.75294118 23 19 C20.30212438 17.81293473 18.08259942 16.33463503 15.75 14.5625 C13.13686415 12.63227871 10.76970412 11.45557831 7.6875 10.4375 C4 9 4 9 3.08984375 6.98828125 C2.15486669 4.75537342 2.15486669 4.75537342 -0.3828125 4.171875 C-1.28773437 4.03265625 -2.19265625 3.8934375 -3.125 3.75 C-4.03507812 3.60046875 -4.94515625 3.4509375 -5.8828125 3.296875 C-6.58148438 3.19890625 -7.28015625 3.1009375 -8 3 C-8.33 4.32 -8.66 5.64 -9 7 C-9.66 7 -10.32 7 -11 7 C-11.33 7.99 -11.66 8.98 -12 10 C-13.65 10.33 -15.3 10.66 -17 11 C-17.92687325 13.78061975 -18.12193396 15.42051859 -18.11352539 18.2878418 C-18.11344986 19.14850754 -18.11337433 20.00917328 -18.11329651 20.8959198 C-18.10813522 21.82100845 -18.10297394 22.74609711 -18.09765625 23.69921875 C-18.0962413 24.64940384 -18.09482635 25.59958893 -18.09336853 26.5785675 C-18.08776875 29.61491029 -18.07521632 32.65117948 -18.0625 35.6875 C-18.05748497 37.74544164 -18.05292207 39.80338444 -18.04882812 41.86132812 C-18.0377994 46.90758046 -18.02053493 51.95377775 -18 57 C-13.05 56.67 -8.1 56.34 -3 56 C-6.74870984 57.87435492 -9.91011437 59.13897145 -14 60 C-16.72265625 59.046875 -16.72265625 59.046875 -19 58 C-19.62144772 51.41193055 -20.19805485 44.82114076 -20.734375 38.22558594 C-20.90679076 36.13187544 -21.08607604 34.03871505 -21.2734375 31.94628906 C-21.52216196 29.11139552 -21.73447871 26.27598671 -21.9375 23.4375 C-22.0192749 22.57680908 -22.1010498 21.71611816 -22.18530273 20.8293457 C-22.45150216 16.59496657 -22.41810395 13.92550631 -19.69140625 10.54296875 C-16.94873679 7.95156408 -14.19543883 5.99714927 -11 4 C-10.175 3.2575 -9.35 2.515 -8.5 1.75 C-5.29188363 -0.49568146 -3.86796573 -0.47124794 0 0 Z " fill="#D50D32" transform="translate(104,122)"/>
<path d="M0 0 C1.0143635 3.16538964 0.95408471 5.27924121 0.1875 8.5 C0.01605469 9.2528125 -0.15539062 10.005625 -0.33203125 10.78125 C-1.00488931 13.01624052 -1.89502703 14.94857339 -3 17 C-3.66 17 -4.32 17 -5 17 C-5 18.65 -5 20.3 -5 22 C-2.03 22 0.94 22 4 22 C4 21.34 4 20.68 4 20 C5.13179687 19.87882812 6.26359375 19.75765625 7.4296875 19.6328125 C8.91151031 19.46399724 10.39327842 19.29470145 11.875 19.125 C12.62136719 19.04636719 13.36773437 18.96773437 14.13671875 18.88671875 C18.52555407 18.4919231 18.52555407 18.4919231 22 16 C23.86328125 15.7265625 23.86328125 15.7265625 26.3125 15.625 C32.21791299 15.19366173 37.94274837 14.17483803 43.75 13.0625 C44.64887939 12.89250488 45.54775879 12.72250977 46.47387695 12.54736328 C51.39291149 11.59135268 56.25231434 10.6185292 61 9 C61.33 8.34 61.66 7.68 62 7 C62.66 7 63.32 7 64 7 C64.33 6.34 64.66 5.68 65 5 C64.6875 7.375 64.6875 7.375 64 10 C60.5835642 12.27762387 58.09689194 12.75179867 54.078125 13.55078125 C53.38941315 13.68992447 52.70070129 13.82906769 51.99111938 13.97242737 C49.74522999 14.42508078 47.49766466 14.86875428 45.25 15.3125 C42.15309737 15.93348264 39.05705732 16.55872164 35.9609375 17.18359375 C35.19254547 17.33797913 34.42415344 17.4923645 33.63247681 17.65142822 C26.11888367 19.16538284 18.63307375 20.7991761 11.15722656 22.48950195 C6.11493448 23.61146525 1.16052189 24.64994272 -4 25 C-4.99 24.34 -5.98 23.68 -7 23 C-6.42389687 17.45044957 -4.97901452 12.73970503 -2.9375 7.5625 C-2.65583984 6.83095703 -2.37417969 6.09941406 -2.08398438 5.34570312 C-1.39586753 3.56126454 -0.69885394 1.78026095 0 0 Z " fill="#D61335" transform="translate(26,79)"/>
<path d="M0 0 C3.25059486 1.57604599 4.87908728 4.14943339 7.0625 7 C5.04204558 6.39816251 3.04138961 5.72693904 1.0625 5 C0.5675 4.01 0.5675 4.01 0.0625 3 C-0.9275 2.67 -1.9175 2.34 -2.9375 2 C-3.164375 2.61875 -3.39125 3.2375 -3.625 3.875 C-5.34124268 6.65367862 -6.90834422 6.91815865 -9.9375 8 C-12.77338434 9.86358114 -14.01491224 11.11611836 -15.9375 14 C-18.68508315 16.43357365 -21.4879598 18.35769751 -24.6875 20.125 C-27.98064457 21.62690809 -27.98064457 21.62690809 -28.9375 24 C-29.16217831 25.53668865 -29.34546805 27.07968054 -29.5 28.625 C-29.58378906 29.44226563 -29.66757813 30.25953125 -29.75390625 31.1015625 C-29.81449219 31.72804688 -29.87507813 32.35453125 -29.9375 33 C-29.2775 33 -28.6175 33 -27.9375 33 C-25.93456653 36.00440021 -25.44478374 37.70993945 -24.8125 41.1875 C-24.64492187 42.08855469 -24.47734375 42.98960938 -24.3046875 43.91796875 C-24.18351562 44.60503906 -24.06234375 45.29210937 -23.9375 46 C-22.9475 46.33 -21.9575 46.66 -20.9375 47 C-19.9475 47.33 -18.9575 47.66 -17.9375 48 C-21.4025 48.495 -21.4025 48.495 -24.9375 49 C-28.04694229 45.48022075 -29.28531168 41.53666243 -30.625 37.125 C-30.84994141 36.43019531 -31.07488281 35.73539063 -31.30664062 35.01953125 C-32.56774077 30.948746 -33.52384993 27.29578475 -32.9375 23 C-31.3984375 21.0234375 -31.3984375 21.0234375 -29.3125 19.375 C-28.30316406 18.55128906 -28.30316406 18.55128906 -27.2734375 17.7109375 C-25.57346033 16.46580372 -23.83583961 15.27157974 -22.078125 14.109375 C-18.1016864 11.43863266 -14.37325328 8.50365985 -10.6171875 5.53515625 C-3.52683629 0 -3.52683629 0 0 0 Z " fill="#DC0D34" transform="translate(150.9375,85)"/>
<path d="M0 0 C4.19122923 2.42566398 8.12526191 5.12757292 12.0625 7.9375 C12.67416016 8.36740234 13.28582031 8.79730469 13.91601562 9.24023438 C22.4369388 15.3108164 22.4369388 15.3108164 24 20 C20.6215487 24.19321179 16.79491149 25.24861356 11.76171875 26.5078125 C10.96272659 26.71936981 10.16373444 26.93092712 9.3405304 27.14889526 C6.79269669 27.82050692 4.24043876 28.47309358 1.6875 29.125 C-0.01791133 29.57034053 -1.72299381 30.01694243 -3.42773438 30.46484375 C-7.27392431 31.47438927 -11.12377921 32.46891997 -14.9750061 33.45904541 C-16.95894932 33.98903377 -18.92136233 34.57125537 -20.88745117 35.16357422 C-23.87328684 35.96594876 -25.18183579 36.12726568 -28 35 C-23.53179108 31.81617502 -19.15340952 30.98957226 -13.875 30 C-12.16878545 29.66129011 -10.46305046 29.32015522 -8.7578125 28.9765625 C-7.93829102 28.81188477 -7.11876953 28.64720703 -6.27441406 28.47753906 C-1.7890107 27.53577769 2.60626597 26.29588316 7 25 C13.81987578 23 13.81987578 23 16 23 C16 22.34 16 21.68 16 21 C17.98 20.67 19.96 20.34 22 20 C21.38125 19.38125 20.7625 18.7625 20.125 18.125 C18.75 16.75 17.375 15.375 16 14 C15.21625 13.731875 14.4325 13.46375 13.625 13.1875 C11 12 11 12 9 9.4375 C7.20081141 6.77943148 7.20081141 6.77943148 4.25 6.1875 C3.13625 6.0946875 3.13625 6.0946875 2 6 C2 4.68 2 3.36 2 2 C1.34 2 0.68 2 0 2 C0 1.34 0 0.68 0 0 Z " fill="#DA0F35" transform="translate(129,142)"/>
<path d="M0 0 C-1 3 -1 3 -2.74609375 4.1328125 C-5.20649114 5.0794472 -7.4544417 5.49857921 -10.0625 5.875 C-16.03392872 6.89393427 -21.36717248 8.82217023 -27 11 C-29.49722926 11.92558339 -31.99619806 12.84273163 -34.5 13.75 C-35.6653125 14.17796875 -36.830625 14.6059375 -38.03125 15.046875 C-41 16 -41 16 -44 16 C-44.29132812 16.58652344 -44.58265625 17.17304687 -44.8828125 17.77734375 C-45.55233264 19.10936109 -46.23147992 20.43669952 -46.9296875 21.75390625 C-50.42004406 28.43173719 -53.02848895 35.41755301 -55 42.6875 C-56.21953189 46.72719937 -58.01463457 50.28948693 -60 54 C-61.34035791 49.97892628 -60.00847713 47.4054843 -58.61328125 43.59375 C-58.35500046 42.87264038 -58.09671967 42.15153076 -57.83061218 41.40856934 C-57.28116048 39.88380297 -56.72689742 38.36076312 -56.16821289 36.83935547 C-55.31774552 34.51434024 -54.49111259 32.18177647 -53.66601562 29.84765625 C-53.12903426 28.36666819 -52.59066772 26.88618149 -52.05078125 25.40625 C-51.80580399 24.7093103 -51.56082672 24.01237061 -51.3084259 23.29431152 C-49.8150031 19.29766681 -48.55624098 17.2958192 -45 15 C-42.94468689 14.06977844 -42.94468689 14.06977844 -40.73803711 13.2824707 C-39.90715073 12.98238602 -39.07626434 12.68230133 -38.22019958 12.37312317 C-37.33155716 12.06050034 -36.44291473 11.7478775 -35.52734375 11.42578125 C-34.60788467 11.09708542 -33.6884256 10.76838959 -32.74110413 10.42973328 C-30.80149455 9.7381351 -28.86066081 9.04996183 -26.91870117 8.36499023 C-23.94190932 7.31405668 -20.96979158 6.25065752 -17.99804688 5.18554688 C-16.11224377 4.51488051 -14.22618453 3.84493383 -12.33984375 3.17578125 C-11.44917709 2.85708572 -10.55851044 2.5383902 -9.64085388 2.21003723 C-8.81311966 1.91940903 -7.98538544 1.62878082 -7.13256836 1.3293457 C-6.04147011 0.94320854 -6.04147011 0.94320854 -4.92832947 0.54927063 C-3 0 -3 0 0 0 Z " fill="#D01437" transform="translate(88,25)"/>
<path d="M0 0 C1 1 1 1 1.18554688 4.10961914 C0.99269344 8.15319742 0.22439321 11.38494974 -0.96875 15.24609375 C-1.26839661 16.23005882 -1.26839661 16.23005882 -1.57409668 17.23390198 C-2.20697956 19.3046902 -2.85321429 21.37101724 -3.5 23.4375 C-3.93448738 24.85063701 -4.36808972 26.26404646 -4.80078125 27.67773438 C-5.85697966 31.12169708 -6.925184 34.56179573 -8 38 C-8.33 38 -8.66 38 -9 38 C-8.78535695 30.45529673 -8.49598443 24.05613914 -4.98828125 17.30859375 C-3.05383993 12.7898 -2.62313744 7.8457135 -2 3 C-2.79664062 3.2165625 -3.59328125 3.433125 -4.4140625 3.65625 C-5.47367188 3.9346875 -6.53328125 4.213125 -7.625 4.5 C-8.66914062 4.7784375 -9.71328125 5.056875 -10.7890625 5.34375 C-13.95687418 5.99118596 -16.77741467 6.1161292 -20 6 C-13.87003734 1.91335822 -7.41953059 -0.78931177 0 0 Z " fill="#DE0E35" transform="translate(108,19)"/>
<path d="M0 0 C4.28324091 2.51407619 6.64531705 4.12314139 8 9 C4.55269855 13.12087971 0.7989932 14.57958724 -4.08984375 16.41796875 C-4.87138321 16.72068192 -5.65292267 17.02339508 -6.45814514 17.33528137 C-8.10616095 17.97128136 -9.75615345 18.60218 -11.40795898 19.22827148 C-13.92947972 20.18445862 -16.44455129 21.15620621 -18.95898438 22.13085938 C-20.56475031 22.74831686 -22.17085916 23.36488346 -23.77734375 23.98046875 C-24.52644516 24.26899216 -25.27554657 24.55751556 -26.04734802 24.8547821 C-29.67956129 26.22716757 -33.14420484 27.39568054 -37 28 C-34.56230384 24.34345575 -33.08684272 24.2510743 -29 23 C-28.01 22.34 -27.02 21.68 -26 21 C-22.8125 20.875 -22.8125 20.875 -20 21 C-20 20.34 -20 19.68 -20 19 C-19.29875 18.74605469 -18.5975 18.49210937 -17.875 18.23046875 C-15.90520889 17.5158842 -13.93650974 16.79828449 -11.96875 16.078125 C-10.18192265 15.42922454 -8.3912815 14.79050597 -6.59375 14.171875 C-2.99791136 12.91064801 -0.55701133 11.81427162 2 9 C2.99 9.33 3.98 9.66 5 10 C4.34 7.69 3.68 5.38 3 3 C2.01 3 1.02 3 0 3 C0 2.01 0 1.02 0 0 Z " fill="#E2113B" transform="translate(173,103)"/>
<path d="M0 0 C1.65 0 3.3 0 5 0 C2.72766097 2.63408131 1.0733708 3.48848251 -2.31616211 4.18261719 C-3.18393784 4.36580505 -4.05171356 4.54899292 -4.94578552 4.73773193 C-5.88019974 4.92224915 -6.81461395 5.10676636 -7.77734375 5.296875 C-8.74023819 5.49476624 -9.70313263 5.69265747 -10.69520569 5.89654541 C-12.73082133 6.31205584 -14.76760268 6.72188992 -16.80541992 7.12646484 C-19.9250067 7.74751283 -23.03963208 8.38992823 -26.15429688 9.03515625 C-28.13255258 9.43618014 -30.11106065 9.8359616 -32.08984375 10.234375 C-33.02223373 10.42698914 -33.95462372 10.61960327 -34.91526794 10.8180542 C-35.78619583 10.98863342 -36.65712372 11.15921265 -37.55444336 11.33496094 C-38.31816757 11.48801697 -39.08189178 11.641073 -39.86875916 11.79876709 C-42.16537631 12.01561492 -43.81226713 11.68797582 -46 11 C-43.73377559 8.73377559 -42.84909195 8.57991274 -39.78125 8 C-38.93046875 7.835 -38.0796875 7.67 -37.203125 7.5 C-35.86507812 7.2525 -35.86507812 7.2525 -34.5 7 C-33.63890625 6.835 -32.7778125 6.67 -31.890625 6.5 C-28.31129752 5.81414084 -24.73035038 5.13706576 -21.1484375 4.46484375 C-19.79105469 4.20380859 -19.79105469 4.20380859 -18.40625 3.9375 C-17.58447266 3.78152344 -16.76269531 3.62554687 -15.91601562 3.46484375 C-14.00329742 3.17678341 -14.00329742 3.17678341 -13 2 C-10.81360547 1.92741054 -8.62499611 1.91626217 -6.4375 1.9375 C-4.64119141 1.95103516 -4.64119141 1.95103516 -2.80859375 1.96484375 C-1.88175781 1.97644531 -0.95492187 1.98804687 0 2 C0 1.34 0 0.68 0 0 Z " fill="#E3163D" transform="translate(165,71)"/>
<path d="M0 0 C0.99 0.33 1.98 0.66 3 1 C0.74603165 9.814299 -2.0624369 18.39630728 -5 27 C-7 24 -7 24 -6.78125 21.36328125 C-5.82745275 17.25718409 -4.70504003 13.22610557 -3.5 9.1875 C-3.27441406 8.41212891 -3.04882812 7.63675781 -2.81640625 6.83789062 C-1.12788238 1.12788238 -1.12788238 1.12788238 0 0 Z " fill="#E5133D" transform="translate(80,114)"/>
<path d="M0 0 C1.17719559 3.4541463 0.80696954 5.67850384 -0.14453125 9.16796875 C-0.40943359 10.14314453 -0.67433594 11.11832031 -0.94726562 12.12304688 C-1.23279297 13.13431641 -1.51832031 14.14558594 -1.8125 15.1875 C-2.08642578 16.21037109 -2.36035156 17.23324219 -2.64257812 18.28710938 C-4.19851509 23.91012379 -4.19851509 23.91012379 -5 26 C-5.66 26.33 -6.32 26.66 -7 27 C-7.49828374 19.40117304 -5.82515177 14.00334558 -3 7 C-2.608125 5.80375 -2.21625 4.6075 -1.8125 3.375 C-1 1 -1 1 0 0 Z " fill="#E3123A" transform="translate(98,57)"/>
<path d="M0 0 C0.33 0 0.66 0 1 0 C1.68335178 8.35885658 2.11334242 16.6126612 2 25 C6.95 24.67 11.9 24.34 17 24 C7.88 28.56 7.88 28.56 3.0625 27.125 C2.381875 26.75375 1.70125 26.3825 1 26 C-0.16711095 17.33003296 -0.09744014 8.72630608 0 0 Z " fill="#CE0A2F" transform="translate(84,154)"/>
<path d="M0 0 C5.66329327 0.60247801 10.64517117 2.09864773 16 4 C17.175625 4.391875 18.35125 4.78375 19.5625 5.1875 C20.366875 5.455625 21.17125 5.72375 22 6 C22 6.66 22 7.32 22 8 C15.54487966 8.56131481 10.84560277 6.63463787 5 4 C5 3.34 5 2.68 5 2 C3.35 1.67 1.7 1.34 0 1 C0 0.67 0 0.34 0 0 Z " fill="#E00C35" transform="translate(52,134)"/>
<path d="M0 0 C0 3 0 3 -2 6 C-2.39013716 7.9896995 -2.73202649 9.99019869 -3 12 C-2.01 12 -1.02 12 0 12 C0 12.66 0 13.32 0 14 C0.99 14 1.98 14 3 14 C3 14.66 3 15.32 3 16 C4.65 16.33 6.3 16.66 8 17 C4.31684509 18.2277183 3.37044582 17.6026666 -0.125 16.125 C-1.01445313 15.75632813 -1.90390625 15.38765625 -2.8203125 15.0078125 C-5 14 -5 14 -6 13 C-5.75988223 6.87699674 -4.06265763 4.27099904 0 0 Z " fill="#D30E34" transform="translate(49,119)"/>
<path d="M0 0 C1.70869576 3.41739152 0.90026407 7.19226939 0.6875 10.9375 C0.63432617 12.1740332 0.63432617 12.1740332 0.58007812 13.43554688 C0.53689453 14.22896484 0.49371094 15.02238281 0.44921875 15.83984375 C0.41143311 16.56550537 0.37364746 17.29116699 0.3347168 18.03881836 C0 20 0 20 -2 23 C-2.25417629 19.5430244 -2.47407622 16.08471174 -2.6875 12.625 C-2.76033203 11.64015625 -2.83316406 10.6553125 -2.90820312 9.640625 C-2.96298828 8.69960937 -3.01777344 7.75859375 -3.07421875 6.7890625 C-3.13182373 5.91975098 -3.18942871 5.05043945 -3.2487793 4.15478516 C-3.16668213 3.44370605 -3.08458496 2.73262695 -3 2 C-2.01 1.34 -1.02 0.68 0 0 Z " fill="#E1193D" transform="translate(85,134)"/>
<path d="M0 0 C0.99 0 1.98 0 3 0 C3 2.31 3 4.62 3 7 C3.66 7 4.32 7 5 7 C5.33 8.98 5.66 10.96 6 13 C8.97 13.495 8.97 13.495 12 14 C9.89392642 15.27868753 8.48944164 16.00955941 6 15.9609375 C4 15 4 15 2.734375 12.12890625 C2.40953125 10.95199219 2.0846875 9.77507812 1.75 8.5625 C1.41484375 7.38816406 1.0796875 6.21382813 0.734375 5.00390625 C0 2 0 2 0 0 Z " fill="#E1163C" transform="translate(106,69)"/>
<path d="M0 0 C0.66 0 1.32 0 2 0 C0.11380178 7.03645577 -1.86927695 14.03359344 -4 21 C-4.33 21 -4.66 21 -5 21 C-4.91297874 18.72844502 -4.80480478 16.45769257 -4.6875 14.1875 C-4.62949219 12.92292969 -4.57148437 11.65835938 -4.51171875 10.35546875 C-3.98187583 6.88115528 -3.64612173 6.09484637 -1 4 C-0.28552357 1.89667109 -0.28552357 1.89667109 0 0 Z " fill="#D91135" transform="translate(104,36)"/>
<path d="M0 0 C3.40218955 1.45808124 4.95297781 4.02020714 7.1875 6.9375 C5.16704558 6.33566251 3.16638961 5.66443904 1.1875 4.9375 C0.8575 4.2775 0.5275 3.6175 0.1875 2.9375 C-0.8025 2.6075 -1.7925 2.2775 -2.8125 1.9375 C-3.4725 3.2575 -4.1325 4.5775 -4.8125 5.9375 C-6.1325 5.6075 -7.4525 5.2775 -8.8125 4.9375 C-2.64814568 -0.09131537 -2.64814568 -0.09131537 0 0 Z " fill="#DB1B3E" transform="translate(150.8125,85.0625)"/>
<path d="M0 0 C1.47353497 4.63110991 0.44872344 8.46233176 -1 13 C-2.625 15.5625 -2.625 15.5625 -4 17 C-5.40843182 12.45422306 -4.4862514 9.95728968 -2.5625 5.6875 C-1.85287109 4.08455078 -1.85287109 4.08455078 -1.12890625 2.44921875 C-0.75636719 1.64097656 -0.38382813 0.83273438 0 0 Z " fill="#DF1439" transform="translate(26,79)"/>
<path d="M0 0 C-1 3 -1 3 -2.5625 4.125 C-6.0911133 5.3916817 -9.24659188 5.75784464 -13 6 C-13.66 5.34 -14.32 4.68 -15 4 C-13.06441401 3.32779649 -11.12645628 2.66241923 -9.1875 2 C-8.10855469 1.62875 -7.02960938 1.2575 -5.91796875 0.875 C-3 0 -3 0 0 0 Z " fill="#D01C39" transform="translate(88,25)"/>
<path d="M0 0 C-1.72850345 0.79311367 -3.45783354 1.5844259 -5.1875 2.375 C-6.63189453 3.03628906 -6.63189453 3.03628906 -8.10546875 3.7109375 C-9.06066406 4.13632813 -10.01585937 4.56171875 -11 5 C-12.32451172 5.60714844 -12.32451172 5.60714844 -13.67578125 6.2265625 C-16 7 -16 7 -19 6 C-16.5244152 3.5244152 -14.30051247 3.07771836 -11 2 C-10.01 1.34 -9.02 0.68 -8 0 C-2.47887324 -1.23943662 -2.47887324 -1.23943662 0 0 Z " fill="#DD0D36" transform="translate(155,124)"/>
<path d="M0 0 C4.69159716 3.38772897 9.0299782 6.78185183 13 11 C11.35 10.67 9.7 10.34 8 10 C8 9.34 8 8.68 8 8 C6.68 8 5.36 8 4 8 C4 7.01 4 6.02 4 5 C3.01 5 2.02 5 1 5 C0.67 3.35 0.34 1.7 0 0 Z " fill="#DE0D36" transform="translate(159,92)"/>
<path d="M0 0 C-5.92657142 2.80788736 -11.64019979 5.37622122 -18 7 C-18.99 7.495 -18.99 7.495 -20 8 C-20.99 7.34 -21.98 6.68 -23 6 C-22.2265625 5.74605469 -21.453125 5.49210937 -20.65625 5.23046875 C-15.8700217 3.64888093 -11.11277913 2.07508933 -6.4375 0.1875 C-3 -1 -3 -1 0 0 Z " fill="#EB0836" transform="translate(67,35)"/>
<path d="M0 0 C3.95120064 7.16155116 2 17.92107195 2 26 C1.67 26 1.34 26 1 26 C-0.01286753 17.30019136 -0.10621544 8.74507107 0 0 Z " fill="#EC0837" transform="translate(85,153)"/>
<path d="M0 0 C1.62493077 3.24986154 0.01742565 5.97227385 -1.03125 9.3125 C-2.38549562 13.06943945 -4.11146699 16.4834213 -6 20 C-7.4146816 15.75595521 -5.6963296 12.84871797 -4.125 8.875 C-3.84269531 8.13378906 -3.56039063 7.39257812 -3.26953125 6.62890625 C-1.15992374 1.15992374 -1.15992374 1.15992374 0 0 Z " fill="#D30930" transform="translate(34,59)"/>
<path d="M0 0 C2.5654594 2.5654594 2.54046087 4.47686668 3 8 C3.66 8 4.32 8 5 8 C5.66 9.32 6.32 10.64 7 12 C8.65 12 10.3 12 12 12 C10 14 10 14 7.5625 14.375 C5 14 5 14 3.4140625 12.3046875 C1.83903634 9.73765591 1.31839689 7.70755106 0.8125 4.75 C0.65394531 3.85796875 0.49539062 2.9659375 0.33203125 2.046875 C0.22246094 1.37140625 0.11289063 0.6959375 0 0 Z " fill="#D10B31" transform="translate(121,120)"/>
<path d="M0 0 C0 0.66 0 1.32 0 2 C-6.30338787 3.3792223 -11.6496923 4.41117949 -18 3 C-14.6285772 0.9966908 -11.76195354 0.63285687 -7.875 0.375 C-6.82054687 0.30023438 -5.76609375 0.22546875 -4.6796875 0.1484375 C-3.12139607 0.06211815 -1.56068036 0 0 0 Z " fill="#E00D34" transform="translate(48,97)"/>
<path d="M0 0 C-1.32 0.33 -2.64 0.66 -4 1 C-4 1.66 -4 2.32 -4 3 C-5.41377782 3.36552803 -6.83120576 3.71695495 -8.25 4.0625 C-9.03890625 4.25972656 -9.8278125 4.45695312 -10.640625 4.66015625 C-13.10394822 5.01497267 -14.65604132 4.76877544 -17 4 C-14.63699651 1.63699651 -13.4201502 1.48566556 -10.1875 0.875 C-8.90939453 0.62363281 -8.90939453 0.62363281 -7.60546875 0.3671875 C-5.03156189 0.004448 -2.59538412 -0.06523407 0 0 Z " fill="#E20E34" transform="translate(136,78)"/>
<path d="M0 0 C4.8330556 1.4645623 8.7086327 4.19726207 12 8 C12.4375 10.875 12.4375 10.875 12 13 C11.34 12.34 10.68 11.68 10 11 C10 10.01 10 9.02 10 8 C9.46375 7.7525 8.9275 7.505 8.375 7.25 C5.4176018 5.69347463 2.70275949 3.96564327 0 2 C0 1.34 0 0.68 0 0 Z " fill="#CF0F34" transform="translate(72,100)"/>
<path d="M0 0 C6.75 0.875 6.75 0.875 9 2 C9 2.66 9 3.32 9 4 C10.65 4 12.3 4 14 4 C13.01 4.66 12.02 5.32 11 6 C7.8125 5.125 7.8125 5.125 5 4 C5 3.34 5 2.68 5 2 C3.35 1.67 1.7 1.34 0 1 C0 0.67 0 0.34 0 0 Z " fill="#E5183F" transform="translate(52,134)"/>
<path d="M0 0 C4.28324091 2.51407619 6.64531705 4.12314139 8 9 C7.34 9.66 6.68 10.32 6 11 C6 9.35 6 7.7 6 6 C5.01 5.67 4.02 5.34 3 5 C3 4.34 3 3.68 3 3 C2.01 3 1.02 3 0 3 C0 2.01 0 1.02 0 0 Z " fill="#D01A3D" transform="translate(173,103)"/>
<path d="M0 0 C-0.75 5.75 -0.75 5.75 -3 8 C-3.33 5.69 -3.66 3.38 -4 1 C-2 0 -2 0 0 0 Z " fill="#E6294C" transform="translate(77,133)"/>
<path d="M0 0 C0.33 0 0.66 0 1 0 C1 1.98 1 3.96 1 6 C-1.8125 7.5625 -1.8125 7.5625 -5 9 C-5.99 8.67 -6.98 8.34 -8 8 C-6.576875 7.4121875 -6.576875 7.4121875 -5.125 6.8125 C-1.65872662 4.80206144 -1.0197307 3.77300358 0 0 Z " fill="#D11033" transform="translate(176,64)"/>
<path d="M0 0 C2.97 1.98 2.97 1.98 6 4 C6.66 3.67 7.32 3.34 8 3 C8 3.99 8 4.98 8 6 C5.125 5.8125 5.125 5.8125 2 5 C0.625 2.4375 0.625 2.4375 0 0 Z " fill="#EA1641" transform="translate(107,127)"/>
<path d="M0 0 C2.375 -0.1875 2.375 -0.1875 5 0 C5.66 0.99 6.32 1.98 7 3 C4.69 2.67 2.38 2.34 0 2 C-0.33 2.66 -0.66 3.32 -1 4 C-0.67 2.68 -0.34 1.36 0 0 Z " fill="#CE1535" transform="translate(65,97)"/>
<path d="M0 0 C-0.33 0.66 -0.66 1.32 -1 2 C-3.31 2 -5.62 2 -8 2 C-8.33 1.34 -8.66 0.68 -9 0 C-5.52176885 -1.15941038 -3.54104422 -0.70820884 0 0 Z " fill="#EF0737" transform="translate(120,81)"/>
<path d="M0 0 C-0.33 0.99 -0.66 1.98 -1 3 C-4.0625 4.1875 -4.0625 4.1875 -7 5 C-5.22678182 1.07358831 -4.52021524 0 0 0 Z " fill="#DE0A32" transform="translate(88,25)"/>
<path d="" fill="#FF00FF" transform="translate(0,0)"/>
<path d="" fill="#FF00FF" transform="translate(0,0)"/>
<path d="" fill="#FFFFFF" transform="translate(0,0)"/>
<path d="" fill="#FF00FF" transform="translate(0,0)"/>
<path d="" fill="#FF00FF" transform="translate(0,0)"/>
<path d="" fill="#FF00FF" transform="translate(0,0)"/>
<path d="" fill="#FF00FF" transform="translate(0,0)"/>
<path d="" fill="#FF00FF" transform="translate(0,0)"/>
<path d="" fill="#FFFFFF" transform="translate(0,0)"/>
<path d="" fill="#FFFFFF" transform="translate(0,0)"/>
<path d="" fill="#FFFFFF" transform="translate(0,0)"/>
<path d="" fill="#FFFFFF" transform="translate(0,0)"/>
<path d="" fill="#FF00FF" transform="translate(0,0)"/>
<path d="" fill="#FF00FF" transform="translate(0,0)"/>
<path d="" fill="#FFFFFF" transform="translate(0,0)"/>
<path d="" fill="#FF00FF" transform="translate(0,0)"/>
<path d="" fill="#FF00FF" transform="translate(0,0)"/>
<path d="" fill="#FF00FF" transform="translate(0,0)"/>
<path d="" fill="#FF00FF" transform="translate(0,0)"/>
<path d="" fill="#FF00FF" transform="translate(0,0)"/>
</svg>
